<svg class="typst-doc" viewBox="0 0 295.82950393700787 297.9625039370079" width="295.82950393700787pt" height="297.9625039370079pt" xmlns="http://www.w3.org/2000/svg" xmlns:xlink="http://www.w3.org/1999/xlink" xmlns:h5="http://www.w3.org/1999/xhtml">
    <path class="typst-shape" fill="#00000000" fill-rule="nonzero" d="M 0 0v 297.9625 h 295.8295 v -297.9625 Z "/>
    <g>
        <g class="typst-group">
            <g>
                <path class="typst-shape" fill="none" stroke="#000000" stroke-width="1" stroke-linecap="butt" stroke-linejoin="miter" stroke-miterlimit="4" transform="matrix(1 0 0 1 0 159.0648661417323)" d="M 0 0h 290.54446 "/>
                <path class="typst-shape" fill="none" stroke="#000000" stroke-width="1" stroke-linecap="butt" stroke-linejoin="miter" stroke-miterlimit="4" transform="matrix(1 0 0 1 284.8752120188977 156.9388818897638)" d="M 0 0l 5.6692915 2.1259842 l -5.6692915 2.1259842 "/>
                <path class="typst-shape" fill="none" transform="matrix(1 0 0 1 288.10750393700783 161.89951181102367)" d="M 0 0h 7.722 v 9.369 h -7.722 v -9.369 Z "/>
                <g class="typst-group">
                    <g>
                        <g class="typst-group" transform="matrix(1 0 0 1 288.10750393700783 161.89951181102364)">
                            <g>
                                <g class="typst-text" transform="matrix(1 0 0 -1 0 9.2205)">
                                    <use xlink:href="#g340D3BCCEC47335923DF94AF9D24637F" x="0" y="0" fill="#000000" fill-rule="nonzero"/>
                                </g>
                            </g>
                        </g>
                    </g>
                </g>
                <path class="typst-shape" fill="none" stroke="#000000" stroke-width="1" stroke-linecap="butt" stroke-linejoin="miter" stroke-miterlimit="4" transform="matrix(1 0 0 1 138.89763779527559 7.418034639967636)" d="M 0 0m 0 290.54446 v -290.54446 "/>
                <path class="typst-shape" fill="none" stroke="#000000" stroke-width="1" stroke-linecap="butt" stroke-linejoin="miter" stroke-miterlimit="4" transform="matrix(1 0 0 1 136.77165354330708 7.418000579527543)" d="M 0 0m 0 5.6692915 l 2.1259842 -5.6692915 l 2.1259842 5.6692915 "/>
                <path class="typst-shape" fill="none" transform="matrix(1 0 0 1 129.44799212598426 0)" d="M 0 0h 6.615 v 11.988 h -6.615 l -0.000000000000015106026 -11.988 Z "/>
                <g class="typst-group">
                    <g>
                        <g class="typst-group" transform="matrix(1 0 0 1 129.44799212598426 -0.0000001700787354312474)">
                            <g>
                                <g class="typst-text" transform="matrix(1 0 0 -1 0 9.2205)">
                                    <use xlink:href="#g1698667527DD1862A5113F289D1AC6BE" x="0" y="0" fill="#000000" fill-rule="nonzero"/>
                                </g>
                            </g>
                        </g>
                    </g>
                </g>
                <path class="typst-shape" fill="none" transform="matrix(1 0 0 1 127.89566929133859 163.3168346456693)" d="M 0 0h 6.75 v 9.5175 h -6.75 v -9.5175 Z "/>
                <g class="typst-group">
                    <g>
                        <g class="typst-group" transform="matrix(1 0 0 1 127.89566929133858 163.31683456062993)">
                            <g>
                                <g class="typst-text" transform="matrix(1 0 0 -1 0 9.2205)">
                                    <use xlink:href="#g1B698C3C3FED77FEC2E3CDF6310A004A" x="0" y="0" fill="#000000" fill-rule="nonzero"/>
                                </g>
                            </g>
                        </g>
                    </g>
                </g>
                <path class="typst-shape" fill="none" stroke="#0074d9" stroke-width="1" stroke-linecap="butt" stroke-linejoin="miter" stroke-miterlimit="4" transform="matrix(1 0 0 1 9.486249534125532 23.001874015748033)" d="M 0 0"/>
                <path class="typst-shape" fill="none" stroke="#0074d9" stroke-width="1" stroke-linecap="butt" stroke-linejoin="miter" stroke-miterlimit="4" transform="matrix(1 0 0 1 9.507917919520112 23.001874015748033)" d="M 0 0"/>
                <path class="typst-shape" fill="none" stroke="#0074d9" stroke-width="1" stroke-linecap="butt" stroke-linejoin="miter" stroke-miterlimit="4" transform="matrix(1 0 0 1 9.524234446221078 23.001874015748033)" d="M 0 0"/>
                <path class="typst-shape" fill="none" stroke="#0074d9" stroke-width="1" stroke-linecap="butt" stroke-linejoin="miter" stroke-miterlimit="4" transform="matrix(1 0 0 1 9.534583953319695 23.001874015748033)" d="M 0 0"/>
                <path class="typst-shape" fill="none" stroke="#0074d9" stroke-width="1" stroke-linecap="butt" stroke-linejoin="miter" stroke-miterlimit="4" transform="matrix(1 0 0 1 9.5382886694377 23.001874015748033)" d="M 0 0l 0.894753 0.80881035 l 1.8446314 1.6606082 l 1.8446314 1.6534338 l 1.8446317 1.6459093 l 1.8446317 1.6380157 l 1.8446312 1.6297331 l 1.8446312 1.6210403 l 1.8446321 1.6119137 l 1.8446312 1.6023312 l 1.8446321 1.5922651 l 1.8446312 1.5816927 l 1.8446312 1.5705833 l 1.8446312 1.5589142 l 1.8446312 1.5466461 l 1.8446331 1.5337563 l 1.8446312 1.5202103 l 1.8446312 1.5059719 l 1.8446331 1.4910088 l 1.8446312 1.4752884 l 1.8446312 1.4587688 l 1.8446312 1.4414177 l 1.8446312 1.4231949 l 1.8446312 1.404068 l 1.8446312 1.383995 l 1.8446312 1.3629379 l 1.8446312 1.3408699 l 1.8446312 1.317749 l 1.8446312 1.2935486 l 1.8446312 1.2682381 l 1.844635 1.241787 l 1.8446312 1.2141838 l 1.8446312 1.1854095 l 1.8446312 1.1554489 l 1.8446312 1.1243095 l 1.8446312 1.0919876 l 1.8446312 1.0585098 l 1.844635 1.0238953 l 1.8446274 0.98817825 l 1.844635 0.9514122 l 1.8446274 0.9136658 l 1.844635 0.8750038 l 1.8446274 0.8355255 l 1.844635 0.79532623 l 1.8446274 0.7545357 l 1.844635 0.7132759 l 1.8446274 0.67170334 l 1.844635 0.6299629 l 1.844635 0.58823013 l 1.8446274 0.54667664 l 1.844635 0.50548553 l 1.8446274 0.46483994 l 1.844635 0.4249344 l 1.8446274 0.38594818 l 1.844635 0.34806824 l 1.8446274 0.31147003 l 1.844635 0.2763176 l 1.8446274 0.24279022 l 1.844635 0.2110138 l 1.8446274 0.18112183 l 1.844635 0.15325165 l 1.844635 0.12749481 l 1.8446274 0.1039505 l 1.844635 0.08269501 l 1.8446274 0.06378937 l 1.844635 0.04727173 l 1.8446274 0.033203125 l 1.844635 0.021598816 l 1.8446274 0.012481689 l 1.844635 0.005859375 l 1.844635 0.001739502 l 1.8446198 0.0001296997 l 1.844635 0.0010299683 l 1.844635 0.004425049 l 1.844635 0.010345459 l 1.844635 0.01877594 l 1.8446198 0.02973175 l 1.844635 0.04322815 l 1.844635 0.059288025 l 1.844635 0.07796478 l 1.8446198 0.09929657 l 1.844635 0.12334442 l 1.844635 0.15019989 l 1.844635 0.17996216 l 1.844635 0.21276855 l 1.8446198 0.2487793 l 1.844635 0.28818512 l 1.844635 0.3312149 l 1.844635 0.3781662 l 1.8446198 0.42938232 l 1.844635 0.48529053 l 1.844635 0.5463867 l 1.844635 0.61330414 l 1.8446198 0.68683624 l 1.844635 0.7679138 l 1.844635 0.8577652 l 1.844635 0.9579239 l 1.844635 1.0703812 l 1.8446198 1.1977386 l 1.844635 1.3435287 l 1.844635 1.5125809 l 1.844635 1.711792 l 1.8446198 1.9513245 l 1.844635 2.2469635 l 1.844635 2.6247177 l 1.844635 3.131218 l 1.8446198 3.8606339 l 1.844635 5.0421066 l 1.844635 7.4653015 l 1.844635 29.995789 "/>
                <path class="typst-shape" fill="none" stroke="#0074d9" stroke-width="1" stroke-linecap="butt" stroke-linejoin="miter" stroke-miterlimit="4" transform="matrix(1 0 0 1 209.6532450046002 159.0648661417323)" d="M 0 0l 1.3468574 27.420063 l 1.3468574 7.3448524 l 1.3468573 5.280266 l 1.3468575 4.304554 l 1.3468571 3.7199783 l 1.3468575 3.3257828 l 1.3468571 3.040123 l 1.346858 2.8227692 l 1.3468571 2.6514435 l 1.3468571 2.512741 l 1.346858 2.3980675 l 1.3468571 2.3016357 l 1.3468571 2.2194138 l 1.3468571 2.1484756 l 1.3468571 2.08667 l 1.346859 2.0323563 l 1.3468571 1.9842682 l 1.3468571 1.9414063 l 1.3468571 1.9029922 l 1.3468571 1.868393 l 1.3468571 1.837059 l 1.346859 1.8085785 l 1.3468571 1.782608 l 1.3468571 1.758812 l 1.346859 1.736969 l 1.3468552 1.7168427 l 1.346859 1.6982574 l 1.3468552 1.6810455 l 1.346859 1.6650696 l 1.3468552 1.6502151 l 1.346859 1.6363754 l 1.346859 1.6234436 l 1.3468552 1.6113586 l 1.346859 1.600029 l 1.3468552 1.5894089 l 1.346859 1.5794144 l 1.346859 1.570015 l 1.3468552 1.5611649 l 1.346859 1.552803 l 1.3468552 1.5449142 l 1.346859 1.5374527 l 1.3468552 1.5303879 l 1.346859 1.5236893 l 1.346859 1.5173492 l 1.3468552 1.5113068 l 1.346859 1.5055847 l 1.3468552 1.5001297 l 1.346859 1.4949493 l 0.65823364 0.72817993 "/>
                <path class="typst-shape" fill="none" stroke="#000000" stroke-width="1" stroke-linecap="butt" stroke-linejoin="miter" stroke-miterlimit="4" transform="matrix(1 0 0 1 2.8346456692913384 48.51368503937008)" d="M 0 0l 0.69419897 0.17354974 l 6.9419894 1.7354974 l 6.941989 1.7354972 l 6.941989 1.7354972 l 6.94199 1.7354975 l 6.941988 1.735497 l 6.94199 1.7354975 l 6.94199 1.7354975 l 6.94199 1.7354975 l 6.94199 1.7354975 l 6.941986 1.7354965 l 6.9419937 1.7354984 l 6.941986 1.7354965 l 6.9419937 1.7354984 l 6.941986 1.7354965 l 6.9419937 1.7354984 l 6.941986 1.7354965 l 6.941986 1.7354965 l 6.9419937 1.7354984 l 6.941986 1.7354965 l 6.941986 1.7354965 l 6.9420013 1.7355003 l 6.941986 1.7354965 l 6.941986 1.7354965 l 6.941986 1.7354965 l 6.941986 1.7354965 l 6.9420013 1.7355003 l 6.941986 1.7354965 l 6.941986 1.7354965 l 6.941986 1.7354965 l 6.9420013 1.7355003 l 6.941986 1.7354965 l 6.941986 1.7354965 l 6.941986 1.7354965 l 6.941986 1.7354965 l 6.9420013 1.7355003 l 6.941986 1.7354965 l 6.9420013 1.7355003 l 6.941986 1.7354965 l 6.941986 1.7354965 l 0.69418335 0.17354584 "/>
                <path class="typst-shape" fill="none" stroke="#ffdc00" stroke-width="1" stroke-linecap="butt" stroke-linejoin="miter" stroke-miterlimit="4" transform="matrix(1 0 0 1 172.91338582677164 91.03337007874016)" d="M 0 0"/>
                <path class="typst-shape" fill="#000000" fill-rule="nonzero" transform="matrix(1 0 0 1 169.51181102362204 87.63179527559056)" d="M 0 0m 3.4015749 0 c -1.8769346 0 -3.4015749 1.5246402 -3.4015749 3.4015749 c 0 1.8769343 1.5246402 3.4015749 3.4015749 3.4015749 c 1.8769343 0 3.4015749 -1.5246406 3.4015749 -3.4015749 c 0 -1.8769346 -1.5246406 -3.4015749 -3.4015749 -3.4015749 Z "/>
                <path class="typst-shape" fill="#000000" fill-rule="nonzero" transform="matrix(1 0 0 1 169.51181102362204 87.63179527559056)" d="M 0 0m 3.4015749 0 c -1.8769346 0 -3.4015749 1.5246402 -3.4015749 3.4015749 c 0 1.8769343 1.5246402 3.4015749 3.4015749 3.4015749 c 1.8769343 0 3.4015749 -1.5246406 3.4015749 -3.4015749 c 0 -1.8769346 -1.5246406 -3.4015749 -3.4015749 -3.4015749 Z "/>
                <path class="typst-shape" fill="none" stroke="#000000" stroke-width="1" stroke-linecap="butt" stroke-linejoin="miter" stroke-miterlimit="4" transform="matrix(1 0 0 1 2.8346456692913384 23.256992125984265)" d="M 0 0l 0.69419897 0.5015587 l 6.9419894 5.0155873 l 6.941989 5.015587 l 6.941989 5.015588 l 6.94199 5.015587 l 6.941988 5.015587 l 6.94199 5.0155888 l 6.94199 5.0155888 l 6.94199 5.015587 l 6.94199 5.015587 l 6.941986 5.015587 l 6.9419937 5.015587 l 6.941986 5.015587 l 6.9419937 5.015587 l 6.941986 5.015587 l 6.9419937 5.015587 l 6.941986 5.015587 l 6.941986 5.015587 l 6.9419937 5.015587 l 6.941986 5.0155945 l 6.941986 5.015587 l 6.9420013 5.015587 l 6.941986 5.015587 l 6.941986 5.015587 l 6.941986 5.015587 l 6.941986 5.015587 l 6.9420013 5.015587 l 6.941986 5.0155945 l 6.941986 5.015579 l 6.941986 5.0155945 l 6.9420013 5.015579 l 6.941986 5.0155945 l 6.941986 5.015579 l 6.941986 5.0155945 l 6.941986 5.015579 l 6.9420013 5.0155945 l 6.941986 5.015579 l 6.9420013 5.0155945 l 6.941986 5.015579 l 6.941986 5.0155945 l 0.69418335 0.5015564 "/>
                <path class="typst-shape" fill="none" stroke="#0074d9" stroke-width="1" stroke-linecap="butt" stroke-linejoin="miter" stroke-miterlimit="4" transform="matrix(1 0 0 1 56.28796400449944 61.87701462317209)" d="M 0 0"/>
                <path class="typst-shape" fill="#000000" fill-rule="nonzero" transform="matrix(1 0 0 1 52.88638920134983 58.475439820022494)" d="M 0 0m 3.4015749 0 c -1.8769346 0 -3.4015749 1.5246402 -3.4015749 3.4015749 c 0 1.8769343 1.5246402 3.4015749 3.4015749 3.4015749 c 1.8769343 0 3.4015749 -1.5246406 3.4015749 -3.4015749 c 0 -1.8769346 -1.5246406 -3.4015749 -3.4015749 -3.4015749 Z "/>
                <path class="typst-shape" fill="#000000" fill-rule="nonzero" transform="matrix(1 0 0 1 52.88638920134983 58.475439820022494)" d="M 0 0m 3.4015749 0 c -1.8769346 0 -3.4015749 1.5246402 -3.4015749 3.4015749 c 0 1.8769343 1.5246402 3.4015749 3.4015749 3.4015749 c 1.8769343 0 3.4015749 -1.5246406 3.4015749 -3.4015749 c 0 -1.8769346 -1.5246406 -3.4015749 -3.4015749 -3.4015749 Z "/>
                <path class="typst-shape" fill="none" stroke="#000000" stroke-width="1" stroke-linecap="butt" stroke-linejoin="miter" stroke-miterlimit="4" transform="matrix(1 0 0 1 206.24881889763782 77.53646631606277)" d="M 0 0l 0.097187854 2.588668 l 0.097187854 2.588668 l 0.09718783 2.5886683 l 0.09718788 2.5886679 l 0.09718785 2.5886688 l 0.09718782 2.5886679 l 0.09718788 2.5886688 l 0.09718788 2.588667 l 0.09718782 2.5886688 l 0.09718788 2.5886688 l 0.09718788 2.588667 l 0.09718776 2.5886688 l 0.09718788 2.5886688 l 0.09718788 2.5886688 l 0.09718788 2.588665 l 0.09718788 2.5886688 l 0.09718776 2.5886688 l 0.09718788 2.5886688 l 0.09718788 2.5886688 l 0.09718788 2.5886688 l 0.09718776 2.588665 l 0.097187996 2.5886688 l 0.09718776 2.5886688 l 0.09718776 2.5886688 l 0.097187996 2.5886688 l 0.09718776 2.5886688 l 0.097187996 2.5886688 l 0.09718776 2.5886688 l 0.09718776 2.5886612 l 0.097187996 2.5886688 l 0.09718776 2.5886688 l 0.097187996 2.5886688 l 0.09718776 2.5886688 l 0.09718776 2.5886688 l 0.097187996 2.5886688 l 0.09718776 2.5886688 l 0.097187996 2.5886688 l 0.09718776 2.5886688 l 0.09718776 2.5886688 l 0.097187996 2.5886688 l 0.09718776 2.5886612 l 0.09718776 2.5886688 l 0.097187996 2.5886688 l 0.097187996 2.5886688 l 0.09718752 2.5886688 l 0.097187996 2.5886688 l 0.097187996 2.5886688 l 0.09718752 2.5886688 l 0.097187996 2.5886688 "/>
                <path class="typst-shape" fill="none" stroke="#2ecc40" stroke-width="1" stroke-linecap="butt" stroke-linejoin="miter" stroke-miterlimit="4" transform="matrix(1 0 0 1 209.82565245634078 172.8079945296275)" d="M 0 0"/>
                <path class="typst-shape" fill="#000000" fill-rule="nonzero" transform="matrix(1 0 0 1 206.4240776531912 169.40641972647788)" d="M 0 0m 3.4015749 0 c -1.8769346 0 -3.4015749 1.5246402 -3.4015749 3.4015749 c 0 1.8769343 1.5246402 3.4015749 3.4015749 3.4015749 c 1.8769343 0 3.4015749 -1.5246406 3.4015749 -3.4015749 c 0 -1.8769346 -1.5246406 -3.4015749 -3.4015749 -3.4015749 Z "/>
                <path class="typst-shape" fill="#000000" fill-rule="nonzero" transform="matrix(1 0 0 1 206.4240776531912 169.40641972647788)" d="M 0 0m 3.4015749 0 c -1.8769346 0 -3.4015749 1.5246402 -3.4015749 3.4015749 c 0 1.8769343 1.5246402 3.4015749 3.4015749 3.4015749 c 1.8769343 0 3.4015749 -1.5246406 3.4015749 -3.4015749 c 0 -1.8769346 -1.5246406 -3.4015749 -3.4015749 -3.4015749 Z "/>
                <path class="typst-shape" fill="none" stroke="#ffdc00" stroke-width="1" stroke-linecap="butt" stroke-linejoin="miter" stroke-miterlimit="4" transform="matrix(1 0 0 1 208.28636220472438 131.8862834645669)" d="M 0 0"/>
                <path class="typst-shape" fill="#000000" fill-rule="nonzero" transform="matrix(1 0 0 1 204.88478740157478 128.48470866141733)" d="M 0 0m 3.4015749 0 c -1.8769346 0 -3.4015749 1.5246402 -3.4015749 3.4015749 c 0 1.8769343 1.5246402 3.4015749 3.4015749 3.4015749 c 1.8769343 0 3.4015749 -1.5246406 3.4015749 -3.4015749 c 0 -1.8769346 -1.5246406 -3.4015749 -3.4015749 -3.4015749 Z "/>
                <path class="typst-shape" fill="#000000" fill-rule="nonzero" transform="matrix(1 0 0 1 204.88478740157478 128.48470866141733)" d="M 0 0m 3.4015749 0 c -1.8769346 0 -3.4015749 1.5246402 -3.4015749 3.4015749 c 0 1.8769343 1.5246402 3.4015749 3.4015749 3.4015749 c 1.8769343 0 3.4015749 -1.5246406 3.4015749 -3.4015749 c 0 -1.8769346 -1.5246406 -3.4015749 -3.4015749 -3.4015749 Z "/>
                <path class="typst-shape" fill="none" transform="matrix(1 0 0 1 36.74759173228346 221.10236220472441)" d="M 0 0h 68.2371 v 11.988 h -68.2371 v -11.988 Z "/>
                <g class="typst-group">
                    <g>
                        <g class="typst-group" transform="matrix(1 0 0 1 36.74759164724409 221.1023620346457)">
                            <g>
                                <g class="typst-group">
                                    <g>
                                        <g class="typst-text" transform="matrix(1 0 0 -1 0 9.2205)">
                                            <use xlink:href="#g340D3BCCEC47335923DF94AF9D24637F" x="0" y="0" fill="#000000" fill-rule="nonzero"/>
                                        </g>
                                        <g class="typst-text" transform="matrix(1 0 0 -1 7.7219999999999995 4.320000000000001)">
                                            <use xlink:href="#g1E5144B896B65B92AC90A0D114776B3" x="0" y="0" fill="#000000" fill-rule="nonzero"/>
                                        </g>
                                        <g class="typst-text" transform="matrix(1 0 0 -1 16.85505 9.2205)">
                                            <use xlink:href="#g4FCDBCE05DC67A04EB07EF57B5A9539C" x="0" y="0" fill="#000000" fill-rule="nonzero"/>
                                        </g>
                                        <g class="typst-text" transform="matrix(1 0 0 -1 30.35805 9.2205)">
                                            <use xlink:href="#g1698667527DD1862A5113F289D1AC6BE" x="0" y="0" fill="#000000" fill-rule="nonzero"/>
                                        </g>
                                        <g class="typst-text" transform="matrix(1 0 0 -1 37.35105 4.320000000000001)">
                                            <use xlink:href="#g1E5144B896B65B92AC90A0D114776B3" x="0" y="0" fill="#000000" fill-rule="nonzero"/>
                                        </g>
                                        <g class="typst-text" transform="matrix(1 0 0 -1 47.2341 9.2205)">
                                            <use xlink:href="#g1471D2B761073777D4A1AA94337246B0" x="0" y="0" fill="#000000" fill-rule="nonzero"/>
                                        </g>
                                        <g class="typst-text" transform="matrix(1 0 0 -1 61.487100000000005 9.2205)">
                                            <use xlink:href="#g5B6E2C64A56B4A00F177B826B714B65F" x="0" y="0" fill="#000000" fill-rule="nonzero"/>
                                        </g>
                                    </g>
                                </g>
                            </g>
                        </g>
                    </g>
                </g>
                <path class="typst-shape" fill="none" transform="matrix(1 0 0 1 152.63188582677165 67.74124606299215)" d="M 0 0h 40.563 v 12.5685 h -40.563 v -12.5685 Z "/>
                <g class="typst-group">
                    <g>
                        <g class="typst-group" transform="matrix(1 0 0 1 152.63188571338583 67.74124597795277)">
                            <g>
                                <g class="typst-group">
                                    <g>
                                        <g class="typst-text" transform="matrix(1 0 0 -1 0 9.2205)">
                                            <use xlink:href="#g6231430944DABA21CA30549927EAF0C8" x="0" y="0" fill="#000000" fill-rule="nonzero"/>
                                        </g>
                                        <g class="typst-text" transform="matrix(1 0 0 -1 10.557 9.2205)">
                                            <use xlink:href="#g28251932E83776474CF92488667885AD" x="0" y="0" fill="#000000" fill-rule="nonzero"/>
                                        </g>
                                        <g class="typst-text" transform="matrix(1 0 0 -1 15.808500000000002 9.2205)">
                                            <use xlink:href="#gC6B3E28070088945CBF00EE9EFFF6079" x="0" y="0" fill="#000000" fill-rule="nonzero"/>
                                        </g>
                                        <g class="typst-text" transform="matrix(1 0 0 -1 22.558500000000002 9.2205)">
                                            <use xlink:href="#gB27CC578D301F4CB284211B5DE6259DD" x="0" y="0" fill="#000000" fill-rule="nonzero"/>
                                        </g>
                                        <g class="typst-text" transform="matrix(1 0 0 -1 28.5615 9.2205)">
                                            <use xlink:href="#g1FC3AD2B13BB33FA3758840A6A4A7F80" x="0" y="0" fill="#000000" fill-rule="nonzero"/>
                                        </g>
                                        <g class="typst-text" transform="matrix(1 0 0 -1 35.311499999999995 9.2205)">
                                            <use xlink:href="#g974E7EB7C34279391D9967A89FAFFB6B" x="0" y="0" fill="#000000" fill-rule="nonzero"/>
                                        </g>
                                    </g>
                                </g>
                            </g>
                        </g>
                    </g>
                </g>
                <path class="typst-shape" fill="none" transform="matrix(1 0 0 1 7.0910433070866095 83.99987007874014)" d="M 0 0h 73.125 v 14.067 h -73.125 v -14.067 Z "/>
                <g class="typst-group">
                    <g>
                        <g class="typst-group" transform="matrix(1 0 0 1 7.091043193700783 83.99987007874017)">
                            <g>
                                <g class="typst-group">
                                    <g>
                                        <g class="typst-text" transform="matrix(1 0 0 -1 0 9.2205)">
                                            <use xlink:href="#g1FC3AD2B13BB33FA3758840A6A4A7F80" x="0" y="0" fill="#000000" fill-rule="nonzero"/>
                                        </g>
                                        <g class="typst-text" transform="matrix(1 0 0 -1 6.75 9.2205)">
                                            <use xlink:href="#g6231430944DABA21CA30549927EAF0C8" x="0" y="0" fill="#000000" fill-rule="nonzero"/>
                                        </g>
                                        <g class="typst-text" transform="matrix(1 0 0 -1 17.307 9.2205)">
                                            <use xlink:href="#gAEF7C7A3061FBDD0B7F0A20F98F8A18A" x="0" y="0" fill="#000000" fill-rule="nonzero"/>
                                        </g>
                                        <g class="typst-text" transform="matrix(1 0 0 -1 23.49 9.2205)">
                                            <use xlink:href="#gE6461761892D8C23682221541B1890E" x="0" y="0" fill="#000000" fill-rule="nonzero"/>
                                        </g>
                                        <g class="typst-text" transform="matrix(1 0 0 -1 35.342999999999996 3.9015)">
                                            <use xlink:href="#g84FE571368CB71A36119A1600351FBB2" x="0" y="0" fill="#000000" fill-rule="nonzero"/>
                                        </g>
                                        <g class="typst-text" transform="matrix(1 0 0 -1 40.72005 3.9015)">
                                            <use xlink:href="#g94767A46C02EB34195D5BF5F241A77CC" x="0" y="0" fill="#000000" fill-rule="nonzero"/>
                                        </g>
                                        <g class="typst-text" transform="matrix(1 0 0 -1 38.031525 13.877999999999998)">
                                            <use xlink:href="#g94767A46C02EB34195D5BF5F241A77CC" x="0" y="0" fill="#000000" fill-rule="nonzero"/>
                                        </g>
                                        <path class="typst-shape" fill="none" stroke="#000000" stroke-width="0.648" stroke-linecap="butt" stroke-linejoin="miter" stroke-miterlimit="4" transform="matrix(1 0 0 1 35.342999999999996 5.8455)" d="M 0 0h 10.7919 "/>
                                        <g class="typst-text" transform="matrix(1 0 0 -1 47.4849 9.2205)">
                                            <use xlink:href="#gB27CC578D301F4CB284211B5DE6259DD" x="0" y="0" fill="#000000" fill-rule="nonzero"/>
                                        </g>
                                        <g class="typst-text" transform="matrix(1 0 0 -1 54.837900000000005 3.901500000000001)">
                                            <use xlink:href="#g92A854471944959BEE54835C55166ABD" x="0" y="0" fill="#000000" fill-rule="nonzero"/>
                                        </g>
                                        <g class="typst-text" transform="matrix(1 0 0 -1 60.21495 3.901500000000001)">
                                            <use xlink:href="#g5F404670E89AD85C0B527FA266C0D2E9" x="0" y="0" fill="#000000" fill-rule="nonzero"/>
                                        </g>
                                        <g class="typst-text" transform="matrix(1 0 0 -1 57.507525 13.877999999999998)">
                                            <use xlink:href="#g94767A46C02EB34195D5BF5F241A77CC" x="0" y="0" fill="#000000" fill-rule="nonzero"/>
                                        </g>
                                        <path class="typst-shape" fill="none" stroke="#000000" stroke-width="0.648" stroke-linecap="butt" stroke-linejoin="miter" stroke-miterlimit="4" transform="matrix(1 0 0 1 54.837900000000005 5.8455)" d="M 0 0h 10.7541 "/>
                                        <g class="typst-text" transform="matrix(1 0 0 -1 66.942 9.2205)">
                                            <use xlink:href="#g7689BB02CFC0EF03C47B861E7B6E7478" x="0" y="0" fill="#000000" fill-rule="nonzero"/>
                                        </g>
                                    </g>
                                </g>
                            </g>
                        </g>
                    </g>
                </g>
                <path class="typst-shape" fill="none" transform="matrix(1 0 0 1 151.54695885826771 220.06286220472444)" d="M 0 0h 110.76435 v 14.067 h -110.76435 v -14.067 Z "/>
                <g class="typst-group">
                    <g>
                        <g class="typst-group" transform="matrix(1 0 0 1 151.5469587023622 220.06286220472444)">
                            <g>
                                <g class="typst-group">
                                    <g>
                                        <g class="typst-text" transform="matrix(1 0 0 -1 0 9.2205)">
                                            <use xlink:href="#g295F4BDDC269ABCF8724FD46B4DE3A08" x="0" y="0" fill="#000000" fill-rule="nonzero"/>
                                        </g>
                                        <g class="typst-text" transform="matrix(1 0 0 -1 6.75 9.2205)">
                                            <use xlink:href="#g6231430944DABA21CA30549927EAF0C8" x="0" y="0" fill="#000000" fill-rule="nonzero"/>
                                        </g>
                                        <g class="typst-text" transform="matrix(1 0 0 -1 17.307 9.2205)">
                                            <use xlink:href="#gAEF7C7A3061FBDD0B7F0A20F98F8A18A" x="0" y="0" fill="#000000" fill-rule="nonzero"/>
                                        </g>
                                        <g class="typst-group">
                                            <g>
                                                <g class="typst-text" transform="matrix(1 0 0 -1 24.84 3.9015)">
                                                    <use xlink:href="#g84FE571368CB71A36119A1600351FBB2" x="0" y="0" fill="#000000" fill-rule="nonzero"/>
                                                </g>
                                                <g class="typst-text" transform="matrix(1 0 0 -1 30.21705 3.9015)">
                                                    <use xlink:href="#g8F2CD841A20ACAA8388B957B8B086D79" x="0" y="0" fill="#000000" fill-rule="nonzero"/>
                                                </g>
                                                <g class="typst-text" transform="matrix(1 0 0 -1 35.5941 3.9015)">
                                                    <use xlink:href="#g8F2CD841A20ACAA8388B957B8B086D79" x="0" y="0" fill="#000000" fill-rule="nonzero"/>
                                                </g>
                                                <g class="typst-text" transform="matrix(1 0 0 -1 40.97115 3.9015)">
                                                    <use xlink:href="#g12555FDEC486F11BC7CC70B31EC2DF25" x="0" y="0" fill="#000000" fill-rule="nonzero"/>
                                                </g>
                                                <g class="typst-text" transform="matrix(1 0 0 -1 46.3482 3.9015)">
                                                    <use xlink:href="#g94767A46C02EB34195D5BF5F241A77CC" x="0" y="0" fill="#000000" fill-rule="nonzero"/>
                                                </g>
                                                <g class="typst-text" transform="matrix(1 0 0 -1 51.76304999999999 3.9015)">
                                                    <use xlink:href="#g820A6C3D3C6797440241514C84F461" x="0" y="0" fill="#000000" fill-rule="nonzero"/>
                                                </g>
                                                <g class="typst-text" transform="matrix(1 0 0 -1 27.547424999999997 13.877999999999998)">
                                                    <use xlink:href="#g820A6C3D3C6797440241514C84F461" x="0" y="0" fill="#000000" fill-rule="nonzero"/>
                                                </g>
                                                <g class="typst-text" transform="matrix(1 0 0 -1 32.924474999999994 13.877999999999998)">
                                                    <use xlink:href="#g5F404670E89AD85C0B527FA266C0D2E9" x="0" y="0" fill="#000000" fill-rule="nonzero"/>
                                                </g>
                                                <g class="typst-text" transform="matrix(1 0 0 -1 38.30152499999999 13.877999999999998)">
                                                    <use xlink:href="#g1E5144B896B65B92AC90A0D114776B3" x="0" y="0" fill="#000000" fill-rule="nonzero"/>
                                                </g>
                                                <g class="typst-text" transform="matrix(1 0 0 -1 43.678574999999995 13.877999999999998)">
                                                    <use xlink:href="#g820A6C3D3C6797440241514C84F461" x="0" y="0" fill="#000000" fill-rule="nonzero"/>
                                                </g>
                                                <g class="typst-text" transform="matrix(1 0 0 -1 49.05562499999999 13.877999999999998)">
                                                    <use xlink:href="#g84FE571368CB71A36119A1600351FBB2" x="0" y="0" fill="#000000" fill-rule="nonzero"/>
                                                </g>
                                                <path class="typst-shape" fill="none" stroke="#000000" stroke-width="0.648" stroke-linecap="butt" stroke-linejoin="miter" stroke-miterlimit="4" transform="matrix(1 0 0 1 24.84 5.8455)" d="M 0 0h 32.3001 "/>
                                            </g>
                                        </g>
                                        <g class="typst-text" transform="matrix(1 0 0 -1 58.49009999999999 9.2205)">
                                            <use xlink:href="#gB27CC578D301F4CB284211B5DE6259DD" x="0" y="0" fill="#000000" fill-rule="nonzero"/>
                                        </g>
                                        <g class="typst-text" transform="matrix(1 0 0 -1 64.4931 9.2205)">
                                            <use xlink:href="#gE6461761892D8C23682221541B1890E" x="0" y="0" fill="#000000" fill-rule="nonzero"/>
                                        </g>
                                        <g class="typst-group">
                                            <g>
                                                <g class="typst-text" transform="matrix(1 0 0 -1 76.3461 3.901500000000001)">
                                                    <use xlink:href="#g1E5144B896B65B92AC90A0D114776B3" x="0" y="0" fill="#000000" fill-rule="nonzero"/>
                                                </g>
                                                <g class="typst-text" transform="matrix(1 0 0 -1 81.72314999999999 3.901500000000001)">
                                                    <use xlink:href="#gE6B346F8A8E75F8FD2875BA64A778F01" x="0" y="0" fill="#000000" fill-rule="nonzero"/>
                                                </g>
                                                <g class="typst-text" transform="matrix(1 0 0 -1 87.1002 3.901500000000001)">
                                                    <use xlink:href="#gB54F0DE1AB4C04C60697441D011866AD" x="0" y="0" fill="#000000" fill-rule="nonzero"/>
                                                </g>
                                                <g class="typst-text" transform="matrix(1 0 0 -1 92.47725 3.901500000000001)">
                                                    <use xlink:href="#g92A854471944959BEE54835C55166ABD" x="0" y="0" fill="#000000" fill-rule="nonzero"/>
                                                </g>
                                                <g class="typst-text" transform="matrix(1 0 0 -1 97.85430000000001 3.901500000000001)">
                                                    <use xlink:href="#g5F404670E89AD85C0B527FA266C0D2E9" x="0" y="0" fill="#000000" fill-rule="nonzero"/>
                                                </g>
                                                <g class="typst-text" transform="matrix(1 0 0 -1 76.3461 13.878000000000002)">
                                                    <use xlink:href="#g820A6C3D3C6797440241514C84F461" x="0" y="0" fill="#000000" fill-rule="nonzero"/>
                                                </g>
                                                <g class="typst-text" transform="matrix(1 0 0 -1 81.72314999999999 13.878000000000002)">
                                                    <use xlink:href="#g5F404670E89AD85C0B527FA266C0D2E9" x="0" y="0" fill="#000000" fill-rule="nonzero"/>
                                                </g>
                                                <g class="typst-text" transform="matrix(1 0 0 -1 87.1002 13.878000000000002)">
                                                    <use xlink:href="#g1E5144B896B65B92AC90A0D114776B3" x="0" y="0" fill="#000000" fill-rule="nonzero"/>
                                                </g>
                                                <g class="typst-text" transform="matrix(1 0 0 -1 92.47725 13.878000000000002)">
                                                    <use xlink:href="#g820A6C3D3C6797440241514C84F461" x="0" y="0" fill="#000000" fill-rule="nonzero"/>
                                                </g>
                                                <g class="typst-text" transform="matrix(1 0 0 -1 97.85430000000001 13.878000000000002)">
                                                    <use xlink:href="#g84FE571368CB71A36119A1600351FBB2" x="0" y="0" fill="#000000" fill-rule="nonzero"/>
                                                </g>
                                                <path class="typst-shape" fill="none" stroke="#000000" stroke-width="0.648" stroke-linecap="butt" stroke-linejoin="miter" stroke-miterlimit="4" transform="matrix(1 0 0 1 76.3461 5.8455)" d="M 0 0h 26.88525 "/>
                                            </g>
                                        </g>
                                        <g class="typst-text" transform="matrix(1 0 0 -1 104.58135 9.2205)">
                                            <use xlink:href="#g7689BB02CFC0EF03C47B861E7B6E7478" x="0" y="0" fill="#000000" fill-rule="nonzero"/>
                                        </g>
                                    </g>
                                </g>
                            </g>
                        </g>
                    </g>
                </g>
                <path class="typst-shape" fill="none" transform="matrix(1 0 0 1 225.48823228346453 127.09351771653543)" d="M 0 0h 17.307 v 9.5175 h -17.307 v -9.5175 Z "/>
                <g class="typst-group">
                    <g>
                        <g class="typst-group" transform="matrix(1 0 0 1 225.48823211338578 127.09351763149607)">
                            <g>
                                <g class="typst-text" transform="matrix(1 0 0 -1 0 9.2205)">
                                    <use xlink:href="#g3EE8FE1F490D6BD67941A34AEC1FD6C0" x="0" y="0" fill="#000000" fill-rule="nonzero"/>
                                </g>
                                <g class="typst-text" transform="matrix(1 0 0 -1 6.75 9.2205)">
                                    <use xlink:href="#g6231430944DABA21CA30549927EAF0C8" x="0" y="0" fill="#000000" fill-rule="nonzero"/>
                                </g>
                            </g>
                        </g>
                    </g>
                </g>
            </g>
        </g>
    </g>
    <defs id="glyph">
        <symbol id="g340D3BCCEC47335923DF94AF9D24637F" overflow="visible">
            <path d="M 0 0m 7.1145 5.0355 c 0 0.6210003 -0.6075001 0.93149996 -1.2824998 0.93149996 c -0.5805001 0 -1.0395002 -0.31049967 -1.3905001 -0.93149996 c -0.2835002 0.6210003 -0.75600004 0.93149996 -1.4445002 0.93149996 c -0.6615 0 -1.2014999 -0.31049967 -1.6335 -0.91799974 c -0.3645 -0.5265002 -0.5535 -0.9180002 -0.5535 -1.1745002 c 0 -0.121500015 0.067499995 -0.18899989 0.20250005 -0.18899989 c 0.121500015 0 0.20249999 0.067499876 0.22949994 0.18899989 c 0.2565 0.78300023 0.82350004 1.701 1.728 1.701 c 0.44550014 0 0.6615 -0.28349972 0.6615 -0.8369999 c 0 -0.2835002 -0.24300003 -1.3364999 -0.7154999 -3.1455002 c -0.22950006 -0.9045 -0.6345 -1.35 -1.215 -1.35 c -0.18900001 0 -0.36450005 0.040500015 -0.513 0.10800001 c 0.35099995 0.13499999 0.5265 0.37800002 0.5265 0.72900003 c 0 0.35099995 -0.17550004 0.5265 -0.5400001 0.5265 c -0.44549996 0 -0.783 -0.37800002 -0.783 -0.82350004 c 0 -0.621 0.6345 -0.9315 1.296 -0.9315 c 0.56700015 0 1.026 0.31050003 1.3905001 0.9315 c 0.2565 -0.621 0.74250007 -0.9315 1.4445 -0.9315 c 0.64800024 0 1.1880002 0.31050003 1.6199999 0.91800004 c 0.36450005 0.5265 0.5535002 0.918 0.5535002 1.1745 c 0 0.121500015 -0.067500114 0.18900013 -0.20249987 0.18900013 c -0.121500015 0 -0.18900013 -0.067500114 -0.2295003 -0.18900013 c -0.22949982 -0.7695 -0.8369999 -1.701 -1.7145 -1.701 c -0.4454999 0 -0.67499995 0.27 -0.67499995 0.82350004 c 0 0.17549992 0.067500114 0.55349994 0.21599984 1.1609999 l 0.4590001 1.8225002 c 0.25650024 1.0124998 0.6750002 1.5254998 1.269 1.5254998 c 0.18900013 0 0.36450005 -0.040499687 0.513 -0.1079998 c -0.36450005 -0.121500015 -0.53999996 -0.36450005 -0.53999996 -0.7290001 c 0 -0.35099983 0.18900013 -0.5265002 0.5535002 -0.5265002 c 0.43199968 0 0.7694998 0.3915 0.7694998 0.82350016 Z "/>
        </symbol>
        <symbol id="g1698667527DD1862A5113F289D1AC6BE" overflow="visible">
            <path d="M 0 0m 2.2005 5.967 c -0.60749996 0 -1.0799999 -0.3375001 -1.4175 -1.0124998 c -0.2565 -0.5265002 -0.3915 -0.8910003 -0.3915 -1.0935001 c 0 -0.121500015 0.067500025 -0.18899989 0.21600002 -0.18899989 c 0.18900001 0 0.20249999 0.08099985 0.2565 0.28349996 c 0.31049997 1.0665002 0.7425 1.6065001 1.296 1.6065001 c 0.17549992 0 0.26999998 -0.121500015 0.26999998 -0.36450005 c 0 -0.21600008 -0.067500114 -0.5265002 -0.21600008 -0.9180002 c -0.5129999 -1.3904998 -0.7694999 -2.322 -0.7694999 -2.8214998 c 0 -1.026 0.6344999 -1.6335001 1.6739999 -1.6335001 c 0.44550014 0 0.8640001 0.162 1.2420003 0.486 c -0.47250032 -1.7820001 -1.2150002 -2.6729999 -2.2275002 -2.6729999 c -0.4590001 0 -0.76950014 0.14849997 -0.9315001 0.4454999 c 0.53999996 0.02699995 0.81000006 0.28349996 0.81000006 0.7695 c 0 0.33750004 -0.17550004 0.513 -0.5400001 0.513 c -0.49950004 0 -0.7965 -0.41849995 -0.7965 -0.918 c 0 -0.74250007 0.675 -1.2150002 1.4580002 -1.2150002 c 1.5525 0 2.8215 1.4310001 3.1590002 2.7540002 l 1.269 5.103 c 0.040499687 0.14849997 0.0539999 0.25650024 0.0539999 0.32400036 c 0 0.26999998 -0.14849997 0.40499973 -0.43200016 0.40499973 c -0.21600008 0 -0.3915 -0.1079998 -0.513 -0.31049967 c -0.08099985 -0.2835002 -0.14849997 -0.5265002 -0.18900013 -0.7290001 l -0.86399984 -3.4695003 c -0.13499975 -0.48599994 -0.8505001 -1.0935 -1.458 -1.0935 c -0.513 0 -0.7695 0.33749998 -0.7695 1.026 c 0 0.56700003 0.22949982 1.4310001 0.67499995 2.592 c 0.17549992 0.47249985 0.26999998 0.7965002 0.26999998 0.98549986 c 0 0.6615 -0.4725001 1.1475 -1.1340001 1.1475 Z "/>
        </symbol>
        <symbol id="g1B698C3C3FED77FEC2E3CDF6310A004A" overflow="visible">
            <path d="M 0 0m 3.3615 -0.29700002 c 1.9035003 0 2.8485 1.539 2.8485 4.617 c 0 2.0654998 -0.43199968 3.4425 -1.2824998 4.1175 c -0.47250032 0.36450005 -0.9990001 0.5535002 -1.5525002 0.5535002 c -1.9035 0 -2.8485 -1.5524998 -2.8485 -4.671 c 0 -2.4840002 0.6615001 -4.617 2.835 -4.617 Z m 1.5120003 7.3710003 c 0.09449959 -0.47250032 0.13499975 -1.3365002 0.13499975 -2.592 c 0 -1.2420003 -0.0539999 -2.1600003 -0.14849997 -2.7540002 c -0.17549992 -1.08 -0.6750002 -1.62 -1.4985001 -1.62 c -0.3104999 0 -0.62100005 0.12150001 -0.9045 0.351 c -0.36450005 0.3105 -0.5805 0.94500005 -0.67499995 1.9170002 c -0.040500045 0.33749986 -0.05400002 1.0395 -0.05400002 2.1060002 c 0 1.1745 0.040500045 1.9979997 0.10800004 2.4435 c 0.121500015 0.7424998 0.36449993 1.2149997 0.74249995 1.4175 c 0.29699993 0.1619997 0.55349994 0.24300003 0.783 0.24300003 c 0.8775003 0 1.3634999 -0.71550035 1.5120003 -1.5120001 Z "/>
        </symbol>
        <symbol id="g1E5144B896B65B92AC90A0D114776B3" overflow="visible">
            <path d="M 0 0m 3.33585 3.33585 c 0.63314986 0.25514984 1.2379501 0.81270003 1.2379501 1.6159499 c 0 0.42525005 -0.22679996 0.76545 -0.6709502 1.0111499 c -0.36855006 0.20790005 -0.7843499 0.31185007 -1.2474 0.31185007 c -0.4630499 0 -0.8693999 -0.094500065 -1.2190499 -0.29295015 c -0.42524993 -0.23624992 -0.64259994 -0.5669999 -0.64259994 -0.99224997 c 0 -0.35909986 0.17954999 -0.53865004 0.52919996 -0.53865004 c 0.29295003 0 0.51030004 0.22680044 0.51030004 0.5197501 c 0 0.29295015 -0.15120006 0.4630499 -0.44414997 0.51030016 c 0.27404988 0.29295015 0.6804 0.44414997 1.23795 0.44414997 c 0.61424994 0 0.96389985 -0.36854982 0.96389985 -0.97335005 c 0 -0.44414997 -0.12284994 -0.80324984 -0.35909986 -1.08675 c -0.26460004 -0.31184983 -0.45359993 -0.35909986 -1.0016999 -0.39689994 c -0.25515008 -0.018899918 -0.42525005 0.009449959 -0.42525005 -0.17954993 c 0 -0.11339998 0.094499946 -0.17009997 0.27405 -0.17009997 h 0.50084996 c 0.81270003 0 1.2096 -0.61424994 1.2096 -1.46475 c 0 -0.83159995 -0.37800002 -1.4647499 -1.1717999 -1.4647499 c -0.6898501 0 -1.1907 0.189 -1.50255 0.57645 c 0.33075 0.037799954 0.50084996 0.22679996 0.50084996 0.55754995 c 0 0.31184995 -0.23625004 0.5481 -0.5481 0.5481 c -0.36855 0 -0.55755 -0.18900001 -0.55755 -0.57645 c 0 -0.48194999 0.2457 -0.86939996 0.72765 -1.14345 c 0.40635002 -0.2268 0.8693999 -0.3402 1.3986 -0.3402 c 0.5764499 0 1.0773001 0.16065 1.5120001 0.48194999 c 0.47249985 0.34965 0.7087498 0.80324996 0.7087498 1.3607999 c 0 0.87885 -0.76545 1.48365 -1.5214498 1.6821 Z "/>
        </symbol>
        <symbol id="g4FCDBCE05DC67A04EB07EF57B5A9539C" overflow="visible">
            <path d="M 0 0m 9.423 3.6990001 h -3.8475003 v 3.8475 c 0 0.21600008 -0.1079998 0.32399988 -0.32399988 0.32399988 c -0.21600008 0 -0.32399988 -0.1079998 -0.32399988 -0.32399988 v -3.8475 h -3.8475003 c -0.21600002 0 -0.324 -0.10800004 -0.324 -0.32400012 c 0 -0.21599984 0.10799998 -0.32399988 0.324 -0.32399988 h 3.8475003 v -3.8475 c 0 -0.21600002 0.1079998 -0.32400006 0.32399988 -0.32400006 c 0.21600008 0 0.32399988 0.10800004 0.32399988 0.32400006 v 3.8475 h 3.8475003 c 0.2159996 0 0.32400036 0.10800004 0.32400036 0.32399988 c 0 0.17550015 -0.14850044 0.32400012 -0.32400036 0.32400012 Z "/>
        </symbol>
        <symbol id="g1471D2B761073777D4A1AA94337246B0" overflow="visible">
            <path d="M 0 0m 9.423 4.9545 h -8.343 c -0.21600002 0 -0.324 -0.10800028 -0.324 -0.31050014 c 0 -0.20249987 0.10799998 -0.31050014 0.324 -0.31050014 h 8.343 c 0.2159996 0 0.32400036 0.10800028 0.32400036 0.31050014 c 0 0.16200018 -0.14850044 0.31050014 -0.32400036 0.31050014 Z m 0 -2.538 h -8.343 c -0.21600002 0 -0.324 -0.10800004 -0.324 -0.31050014 c 0 -0.20249987 0.10799998 -0.3104999 0.324 -0.3104999 h 8.343 c 0.2159996 0 0.32400036 0.10800004 0.32400036 0.3104999 c 0 0.17550015 -0.14850044 0.31050014 -0.32400036 0.31050014 Z "/>
        </symbol>
        <symbol id="g5B6E2C64A56B4A00F177B826B714B65F" overflow="visible">
            <path d="M 0 0m 1.566 1.8900001 c -0.4454999 0 -0.6615 -0.22950006 -0.6615 -0.68850005 c 0 -1.0125 0.82350004 -1.4985001 1.8900001 -1.4985001 c 1.0799999 0 1.944 0.54 2.5785 1.6335001 c 0.5265002 0.9045001 0.7965002 1.9440001 0.7965002 3.105 c 0 1.7145 -0.31050014 2.9295 -0.93150043 3.645 c -0.52649975 0.6075001 -1.1339998 0.9045 -1.8224998 0.9045 c -0.7965002 0 -1.4580001 -0.28349972 -1.9845002 -0.8640003 c -0.58049995 -0.6074996 -0.86399996 -1.3364997 -0.86399996 -2.1869998 c 0 -0.82350016 0.24299997 -1.5254998 0.729 -2.106 c 0.513 -0.62100005 1.1745 -0.93149996 1.9710002 -0.93149996 c 0.7019999 0 1.2420001 0.37800002 1.6065001 1.1339998 v -0.17549992 c 0 -1.4714999 -0.25650024 -2.4705 -0.78300047 -3.0105 c -0.4184997 -0.44550005 -0.86399984 -0.66150004 -1.3094997 -0.66150004 c -0.53999996 0 -0.9315001 0.121499985 -1.1880001 0.37800002 c 0.41850007 0 0.6344999 0.24299997 0.6344999 0.6615 c 0 0.37800002 -0.28349996 0.6615001 -0.6615 0.6615001 Z m 1.7145002 1.431 c -0.5265 0 -0.9180002 0.26999998 -1.1880002 0.80999994 c -0.14849997 0.31050014 -0.22949994 0.9180002 -0.22949994 1.7955003 c 0 0.87750006 0.094500065 1.4714999 0.2700001 1.809 c 0.29699993 0.53999996 0.72899985 0.80999947 1.2825 0.80999947 c 0.55349994 0 0.9584999 -0.33749962 1.2150002 -1.0124998 c 0.14849997 -0.36449957 0.24300003 -0.98549986 0.24300003 -1.8629999 c 0 -1.1745 -0.5265002 -2.349 -1.5930002 -2.349 Z "/>
        </symbol>
        <symbol id="g6231430944DABA21CA30549927EAF0C8" overflow="visible">
            <path d="M 0 0m 7.4925003 9.2205 h -4.32 c -0.31050014 0 -0.4590001 -0.013500214 -0.4590001 -0.31050014 c 0 -0.14849949 0.14849997 -0.2159996 0.44550014 -0.2159996 c 0.26999998 0 0.80999994 0.040499687 0.80999994 -0.17549992 c 0 -0.027000427 -0.013499975 -0.1079998 -0.0539999 -0.24300003 l -1.7820001 -7.1685004 c -0.08100009 -0.297 -0.21600008 -0.47249997 -0.4050001 -0.53999996 c -0.094499946 -0.02700001 -0.33749998 -0.040500045 -0.75600004 -0.040500045 c -0.297 0 -0.43199998 -0.02699998 -0.43199998 -0.31049997 c 0 -0.1485 0.08099997 -0.216 0.2565 -0.216 l 1.6875 0.0405 l 0.8640001 -0.013499999 c 0.14849997 0 0.6884999 -0.027 0.86399984 -0.027 c 0.21600008 0 0.32400036 0.108 0.32400036 0.324 c 0 0.13500002 -0.14849997 0.20249999 -0.43200016 0.20249999 c -0.53999996 0 -0.80999994 0.05400002 -0.80999994 0.17550004 c 0 0 0.013499975 0.040499985 0.040499926 0.21600002 l 0.8100002 3.294 h 2.2275 c 0.87750006 0 1.7145 0.27000046 2.4975 0.7965002 c 0.87750053 0.5805001 1.3094997 1.296 1.3094997 2.1465 c 0 1.3364997 -1.269 2.0654998 -2.6864996 2.0654998 Z m -0.41849995 -0.52649975 c 1.1744995 0 1.7550001 -0.40499973 1.7550001 -1.2150002 c 0 -0.75600004 -0.37800026 -1.7684999 -0.76950073 -2.1195002 c -0.51299953 -0.45899963 -1.1879997 -0.6884999 -2.0249996 -0.6884999 h -1.809 l 0.8909998 3.5640006 c 0.10800028 0.45899963 0.10800028 0.45899963 0.6750002 0.45899963 Z "/>
        </symbol>
        <symbol id="g28251932E83776474CF92488667885AD" overflow="visible">
            <path d="M 0 0m 4.293 -3.348 c 0.121500015 0 0.18900013 0.067499876 0.18900013 0.18899989 c 0 0.040500164 -0.027000427 0.094500065 -0.067500114 0.14849997 c -0.70200014 0.5400002 -1.269 1.4310001 -1.6875002 2.6595001 c -0.36450005 1.0665 -0.55349994 2.1195002 -0.55349994 3.1590002 v 1.1340001 c 0 1.0395 0.18899989 2.0925 0.55349994 3.1590002 c 0.41850019 1.2284999 0.9855001 2.1194997 1.6875002 2.6594996 c 0.040499687 0.04050064 0.067500114 0.09450054 0.067500114 0.14850044 c 0 0.121500015 -0.067500114 0.18900013 -0.18900013 0.18900013 c -0.013500214 0 -0.0539999 -0.013500214 -0.094500065 -0.04050064 c -0.8100002 -0.62099934 -1.4850001 -1.5389996 -2.0385 -2.7675 c -0.5265 -1.1745 -0.7965001 -2.2814999 -0.7965001 -3.3479998 v -1.1340001 c 0 -1.0665001 0.2700001 -2.1735 0.7965001 -3.348 c 0.55349994 -1.2285001 1.2284999 -2.1465 2.0385 -2.7675002 c 0.040500164 -0.02699995 0.08099985 -0.040499926 0.094500065 -0.040499926 Z "/>
        </symbol>
        <symbol id="gC6B3E28070088945CBF00EE9EFFF6079" overflow="visible">
            <path d="M 0 0m 3.6315 8.991 c -0.55349994 -0.5670004 -1.3634999 -0.8505001 -2.4299998 -0.8505001 v -0.52649975 c 0.702 0 1.2824999 0.1079998 1.728 0.32399988 v -6.8310003 c 0 -0.24299997 -0.05400014 -0.40499997 -0.17549992 -0.47249997 c -0.121500015 -0.067499995 -0.4590001 -0.10800004 -0.9990002 -0.10800004 h -0.47249997 v -0.5265 c 0.33749998 0.027 1.0665 0.0405 2.187 0.0405 c 1.1205001 0 1.8495002 -0.013499999 2.1870003 -0.0405 v 0.5265 h -0.47250032 c -0.5534997 0 -0.8909998 0.040500045 -0.9990001 0.10800004 c -0.1079998 0.067499995 -0.17549992 0.2295 -0.17549992 0.47249997 v 7.4790006 c 0 0.3239994 -0.02699995 0.40499973 -0.37800002 0.40499973 Z "/>
        </symbol>
        <symbol id="gB27CC578D301F4CB284211B5DE6259DD" overflow="visible">
            <path d="M 0 0m 1.8765 1.431 c -0.43199992 0 -0.7155 -0.324 -0.7155 -0.756 c 0 -0.405 0.31050003 -0.7425 0.7155 -0.7425 c 0.18900001 0 0.35099995 0.054 0.47249997 0.1755 l 0.013499975 -0.108 c 0 -0.85050005 -0.28349996 -1.5795001 -0.85049987 -2.16 c -0.094500065 -0.10800004 -0.14850008 -0.18899989 -0.14850008 -0.24300003 c 0 -0.13499999 0.05400002 -0.20249987 0.17550004 -0.20249987 c 0.121500015 0 0.28349996 0.16199994 0.513 0.47249985 c 0.4590001 0.6480001 0.6884999 1.3635001 0.6884999 2.1330001 c 0 0.7155 -0.24299979 1.431 -0.86399996 1.431 Z "/>
        </symbol>
        <symbol id="g1FC3AD2B13BB33FA3758840A6A4A7F80" overflow="visible">
            <path d="M 0 0m 3.1995 8.991 c -0.6884999 0 -1.269 -0.24300003 -1.7685001 -0.7290001 c -0.49949998 -0.48600006 -0.756 -1.053 -0.756 -1.7414999 c 0 -0.4590001 0.33750004 -0.7965002 0.756 -0.7965002 c 0.4050001 0 0.74250007 0.3510003 0.74250007 0.75600004 c 0 0.44550037 -0.324 0.75600004 -0.75600004 0.75600004 c -0.040499926 0 -0.067499995 0 -0.094499946 -0.013499737 c 0.2565 0.6615 0.8505 1.2420001 1.7010001 1.2420001 c 1.1069999 0 1.7280002 -0.9585004 1.7280002 -2.1195002 c 0 -0.9045 -0.4590001 -1.8765001 -1.3770003 -2.9025002 l -2.538 -2.862 c -0.17549998 -0.20249999 -0.162 -0.18900001 -0.162 -0.5805 h 5.0085 l 0.3915 2.43 h -0.44550037 c -0.1079998 -0.68850005 -0.20249987 -1.08 -0.28349972 -1.2015 c -0.067500114 -0.067499995 -0.47249985 -0.094499946 -1.2150002 -0.094499946 h -2.2545 l 1.3095001 1.2825 c 0.918 0.8640001 2.0790002 1.7954998 2.4705002 2.5110002 c 0.26999998 0.47249985 0.40499973 0.9449997 0.40499973 1.4175 c 0 1.5929999 -1.2420001 2.646 -2.862 2.646 Z "/>
        </symbol>
        <symbol id="g974E7EB7C34279391D9967A89FAFFB6B" overflow="visible">
            <path d="M 0 0m 1.053 -3.3075001 c 0.81000006 0.62100005 1.4850001 1.539 2.0385 2.7675002 c 0.5265 1.1745 0.79649997 2.2815 0.79649997 3.348 v 1.1340001 c 0 1.0665 -0.26999998 2.1734998 -0.79649997 3.3479998 c -0.55349994 1.2285004 -1.2285 2.1465006 -2.0385 2.7675 c -0.040499926 0.027000427 -0.08099997 0.04050064 -0.094499946 0.04050064 c -0.121500015 0 -0.18900001 -0.067500114 -0.18900001 -0.18900013 c 0 -0.0539999 0.02700001 -0.1079998 0.067499995 -0.14850044 c 0.702 -0.53999996 1.2689999 -1.4309998 1.6875001 -2.6594996 c 0.36450005 -1.0665002 0.55349994 -2.1195002 0.55349994 -3.1590002 v -1.1340001 c 0 -1.0395 -0.18899989 -2.0925002 -0.55349994 -3.1590002 c -0.41850019 -1.2285001 -0.9855001 -2.1195 -1.6875001 -2.6595001 c -0.040499985 -0.0539999 -0.067499995 -0.1079998 -0.067499995 -0.14849997 c 0 -0.121500015 0.067499995 -0.18899989 0.18900001 -0.18899989 c 0.013499975 0 0.05400002 0.013499975 0.094499946 0.040499926 Z "/>
        </symbol>
        <symbol id="gAEF7C7A3061FBDD0B7F0A20F98F8A18A" overflow="visible">
            <path d="M 0 0m 5.13 -4.6845 c 0.13500023 0 0.20249987 0.067500114 0.20249987 0.20249987 c 0 0.067500114 -0.02699995 0.121500015 -0.06749964 0.16200018 c -0.82350016 0.6345 -1.4850001 1.674 -1.9845002 3.132 c -0.43200016 1.2555001 -0.648 2.4975 -0.648 3.6990004 v 1.7280002 c 0 1.2014999 0.21599984 2.4435 0.648 3.699 c 0.49950004 1.4579997 1.161 2.4975 1.9845002 3.1320004 c 0.040499687 0.040499687 0.06749964 0.09449959 0.06749964 0.1619997 c 0 0.13500023 -0.06749964 0.20250034 -0.20249987 0.20250034 c -0.02699995 0 -0.067500114 -0.013500214 -0.1079998 -0.04050064 c -0.9450002 -0.7154999 -1.7280002 -1.7954998 -2.3490002 -3.2399998 c -0.6075001 -1.3635001 -0.9045 -2.6730003 -0.9045 -3.915 v -1.7280002 c 0 -1.2420001 0.29699993 -2.5515 0.9045 -3.9150002 c 0.62100005 -1.4445 1.404 -2.5245001 2.3490002 -3.24 c 0.040499687 -0.02699995 0.08099985 -0.040500164 0.1079998 -0.040500164 Z "/>
        </symbol>
        <symbol id="gE6461761892D8C23682221541B1890E" overflow="visible">
            <path d="M 0 0m 9.423 3.645 h -8.343 c -0.21600002 0 -0.324 -0.09449983 -0.324 -0.26999998 c 0 -0.17549992 0.10799998 -0.26999998 0.324 -0.26999998 h 8.343 c 0.2159996 0 0.32400036 0.094500065 0.32400036 0.26999998 c 0 0.16200018 -0.16200066 0.26999998 -0.32400036 0.26999998 Z "/>
        </symbol>
        <symbol id="g84FE571368CB71A36119A1600351FBB2" overflow="visible">
            <path d="M 0 0m 2.86335 6.2748 c -0.4063499 -0.39690018 -1.01115 -0.5953498 -1.8333 -0.5953498 v -0.4158001 c 0.5575501 0 1.0017 0.085050106 1.3419 0.24569988 v -4.7061 c 0 -0.12284994 -0.009449959 -0.19844997 -0.037800074 -0.23624998 c -0.047249794 -0.103949994 -0.33075 -0.16064999 -0.85049987 -0.16064999 h -0.38744998 v -0.40635 l 1.6821 0.0378 l 1.69155 -0.0378 v 0.40635 h -0.38745022 c -0.5197499 0 -0.80324984 0.05669999 -0.8599498 0.16064999 c -0.018900156 0.037800014 -0.028350115 0.11340004 -0.028350115 0.23624998 v 5.16915 c 0 0.25515032 -0.037800074 0.3024001 -0.33075 0.3024001 Z "/>
        </symbol>
        <symbol id="g94767A46C02EB34195D5BF5F241A77CC" overflow="visible">
            <path d="M 0 0m 5.15025 6.0857997 h -2.4759 c -0.7749001 0 -1.1907 0.04725027 -1.25685 0.1512003 c -0.018900037 0.028349876 -0.037800074 0.07559967 -0.047250032 0.15119982 h -0.37800002 l -0.3402 -2.06955 h 0.3969 c 0.06615007 0.5008502 0.15120006 0.7843499 0.2457 0.8505001 c 0.047250032 0.028349876 0.36854994 0.047249794 0.94500005 0.047249794 h 1.9466999 l -0.91665006 -1.1717997 c -0.88829994 -1.1340001 -1.3324499 -2.35305 -1.3324499 -3.6666 c 0 -0.378 0.16065001 -0.567 0.4725001 -0.567 c 0.32130003 0 0.48195004 0.189 0.48195004 0.57645 v 0.37800002 c 0 1.4363999 0.25514984 2.4759 0.76545 3.12795 l 1.3891499 1.7576997 c 0.11339998 0.1512003 0.10395002 0.14175034 0.10395002 0.4347 Z "/>
        </symbol>
        <symbol id="g92A854471944959BEE54835C55166ABD" overflow="visible">
            <path d="M 0 0m 1.12455 4.0067997 c 0.3024 0 0.52919996 0.22679996 0.52919996 0.5292001 c 0 0.34019995 -0.17954993 0.5197501 -0.52919996 0.5292001 c 0.20789993 0.44414997 0.6804 0.80324984 1.29465 0.80324984 c 0.83159995 0 1.3797 -0.62369967 1.3797 -1.4552999 c 0 -0.45359993 -0.16065001 -0.88829994 -0.4914 -1.31355 c -0.16065001 -0.21735 -0.28349996 -0.36854982 -0.36855006 -0.45359993 l -2.2396498 -2.2207499 c -0.12285 -0.11340001 -0.10395002 -0.14175001 -0.10395002 -0.42525 h 3.8934 l 0.29294968 1.7766 h -0.3968997 c -0.06615019 -0.5008501 -0.14174986 -0.7938 -0.22679996 -0.85995 c -0.04725027 -0.028349996 -0.3402002 -0.047250032 -0.89775014 -0.047250032 h -1.6064999 c 0.6331501 0.55755 1.2190499 1.0583999 1.7765999 1.5025499 c 0.42525005 0.33075 0.72765017 0.6236999 0.9166503 0.87885 c 0.28349972 0.36855006 0.42524958 0.7559998 0.42524958 1.1623499 c 0 0.58589983 -0.22679996 1.0489502 -0.68984985 1.3891501 c -0.4063499 0.31185007 -0.9166498 0.47249985 -1.5214498 0.47249985 c -0.5197501 0 -0.9639001 -0.15119982 -1.3513501 -0.45359993 c -0.40635002 -0.33075 -0.61425 -0.7465501 -0.61425 -1.2568498 c 0 -0.32130003 0.23624998 -0.55755043 0.5292 -0.55755043 Z "/>
        </symbol>
        <symbol id="g5F404670E89AD85C0B527FA266C0D2E9" overflow="visible">
            <path d="M 0 0m 4.8761997 3.01455 c 0 1.0678499 -0.18899965 1.8805501 -0.55754995 2.4381 c -0.30239964 0.47249985 -0.90719986 0.82214975 -1.6348498 0.82214975 c -0.3024001 0 -0.5764501 -0.047249794 -0.81270003 -0.15119982 c -1.0395 -0.4347 -1.3797 -1.6443 -1.3797 -3.10905 c 0 -0.32130003 0.018899977 -0.62370014 0.047249973 -0.91665006 c 0.16065001 -1.2379498 0.73709995 -2.2868998 2.14515 -2.2868998 c 0.30239987 0 0.5764499 0.047250003 0.81270003 0.1512 c 1.0394998 0.42525 1.3796997 1.6064999 1.3796997 3.05235 Z m -1.0772998 2.0978997 c 0.10395002 -0.3496499 0.16065001 -1.0016999 0.16065001 -1.9750497 c 0 -0.9261 -0.037800074 -1.5781499 -0.12284994 -1.9655999 c -0.11339998 -0.55755 -0.51030016 -1.0206001 -1.1529 -1.0206001 c -0.23624992 0 -0.4725001 0.0756 -0.68985 0.23624998 c -0.29295003 0.21735 -0.4725001 0.64259994 -0.5481 1.29465 c -0.028349996 0.21735 -0.037800074 0.69929993 -0.037800074 1.4553 c 0 0.91665006 0.047250032 1.5498002 0.14174998 1.8900001 c 0.16065001 0.60479975 0.53865004 0.90719986 1.1340001 0.90719986 c 0.5669999 0 0.9828 -0.36854982 1.1150999 -0.82215023 Z "/>
        </symbol>
        <symbol id="g7689BB02CFC0EF03C47B861E7B6E7478" overflow="visible">
            <path d="M 0 0m 1.161 -4.644 c 0.94499993 0.7154999 1.7280002 1.7955 2.349 3.24 c 0.6075003 1.3635 0.90450025 2.673 0.90450025 3.9150002 v 1.7280002 c 0 1.2419996 -0.29699993 2.5514998 -0.90450025 3.915 c -0.6209998 1.4445 -1.404 2.5245 -2.349 3.2399998 c -0.040499926 0.027000427 -0.08099997 0.04050064 -0.10800004 0.04050064 c -0.13499993 0 -0.20249993 -0.067500114 -0.20249993 -0.20250034 c 0 -0.067500114 0.02699995 -0.121500015 0.067499995 -0.1619997 c 0.8235 -0.6345005 1.4850001 -1.6740007 1.9845002 -3.1320004 c 0.43199992 -1.2554998 0.648 -2.4975 0.648 -3.699 v -1.7280002 c 0 -1.2015002 -0.21600008 -2.4435 -0.648 -3.6990004 c -0.49950004 -1.4580001 -1.1610001 -2.4975 -1.9845002 -3.132 c -0.040500045 -0.040500164 -0.067499995 -0.094500065 -0.067499995 -0.16200018 c 0 -0.13499975 0.067499995 -0.20249987 0.20249993 -0.20249987 c 0.02700007 0 0.067500114 0.013500214 0.10800004 0.040500164 Z "/>
        </symbol>
        <symbol id="g295F4BDDC269ABCF8724FD46B4DE3A08" overflow="visible">
            <path d="M 0 0m 4.7655 9.139501 c -0.121500015 0 -0.22949982 -0.067500114 -0.31050014 -0.18900013 l -4.0769997 -6.2640004 v -0.48600006 h 3.5235 v -1.107 c 0 -0.24299997 -0.0539999 -0.40499997 -0.14849997 -0.47250003 c -0.09449983 -0.067499995 -0.35099983 -0.094500005 -0.79649997 -0.094500005 h -0.3375001 v -0.5265 c 0.39150023 0.027 1.0125 0.0405 1.8495002 0.0405 c 0.8369999 0 1.4580002 -0.013499999 1.8495002 -0.0405 v 0.5265 h -0.3375001 c -0.4454999 0 -0.70200014 0.02700001 -0.7965002 0.094500005 c -0.094500065 0.067500055 -0.14849997 0.22950006 -0.14849997 0.47250003 v 1.107 h 1.323 v 0.5265 h -1.323 v 6.1829996 c 0 0.13500023 -0.094500065 0.22950077 -0.26999998 0.22950077 Z m -0.783 -1.6740003 v -4.7385006 h -3.078 Z "/>
        </symbol>
        <symbol id="g8F2CD841A20ACAA8388B957B8B086D79" overflow="visible">
            <path d="M 0 0m 2.69325 6.2748 c -0.50084996 0 -0.9261 -0.14174986 -1.29465 -0.4158001 c -0.40635002 -0.31185007 -0.6048 -0.6992998 -0.6048 -1.1812496 c 0 -0.5292001 0.33075 -1.0017002 0.7276499 -1.2663002 c 0.037800074 -0.028349876 0.1701001 -0.10395002 0.38744998 -0.23624992 c -0.9355499 -0.4158001 -1.3985999 -0.9828 -1.3985999 -1.71045 c 0 -0.52919996 0.23624998 -0.94499993 0.70874995 -1.25685 c 0.41579998 -0.26459998 0.8977499 -0.3969 1.4553001 -0.3969 c 0.5669999 0 1.0583999 0.1512 1.48365 0.46305 c 0.4630499 0.34964997 0.6992998 0.7938 0.6992998 1.3419 c 0 0.63315 -0.35909986 1.1056501 -0.77489996 1.3986 c -0.056699753 0.037800074 -0.27405 0.17009997 -0.6615 0.38744998 c 0.76545 0.38744998 1.1529002 0.8694 1.1529002 1.4458499 c 0 0.8977499 -0.91665006 1.42695 -1.8805501 1.42695 Z m 1.3135498 -1.42695 c 0 -0.15119982 -0.037799835 -0.29295015 -0.103949785 -0.4347 c -0.11339998 -0.22679996 -0.29294991 -0.42524981 -0.5292001 -0.58589983 c -0.10395002 -0.07560015 -0.17954993 -0.12285018 -0.22679996 -0.15120006 l -0.09449983 -0.037800074 l -1.2001501 0.68984985 c -0.33075 0.18900013 -0.49139988 0.42525005 -0.49139988 0.70875025 c 0 0.5764499 0.6803999 0.88829994 1.31355 0.88829994 c 0.68984985 0 1.3324497 -0.4347 1.3324497 -1.0773001 Z m -2.8633497 -3.3831 c 0 0.63315 0.3779999 1.134 1.14345 1.4931 c 0.4630499 -0.27405 0.87885 -0.5102999 1.2473998 -0.7276499 c 0.46305013 -0.27405012 0.68984985 -0.58590007 0.68984985 -0.94500005 c 0 -0.34965003 -0.17009974 -0.63315004 -0.5197499 -0.84105 c -0.29294991 -0.1701 -0.63314986 -0.25515002 -1.0111499 -0.25515002 c -0.80324996 0 -1.5497999 0.51975 -1.5497999 1.2757499 Z "/>
        </symbol>
        <symbol id="g12555FDEC486F11BC7CC70B31EC2DF25" overflow="visible">
            <path d="M 0 0m 3.7233 6.3693 c -0.10395002 0 -0.19845009 -0.04725027 -0.27405 -0.14174986 l -3.0807 -4.3092003 v -0.38744998 h 2.7310498 v -0.72765005 c 0 -0.16064996 -0.028349876 -0.27405 -0.09449983 -0.32129997 c -0.06615019 -0.047250003 -0.27405 -0.0756 -0.6142502 -0.0756 h -0.29294991 v -0.40635 l 1.42695 0.0378 l 1.4458499 -0.0378 v 0.40635 h -0.28349972 c -0.34965038 0 -0.55754995 0.028349996 -0.62370014 0.0756 c -0.06614995 0.047249973 -0.094500065 0.16065001 -0.094500065 0.32129997 v 0.72765005 h 1.0300498 v 0.41579998 h -1.0300498 v 4.1201997 c 0 0.22679996 -0.028349876 0.3024001 -0.24569988 0.3024001 Z m -0.55754995 -1.1623502 v -3.2602496 h -2.3436 Z "/>
        </symbol>
        <symbol id="g820A6C3D3C6797440241514C84F461" overflow="visible">
            <path d="M 0 0m 2.7121499 6.2748 c -0.70875 0 -1.3135499 -0.31185007 -1.8332999 -0.93554974 c -0.2457 -0.29295015 -0.36855 -0.68985033 -0.36855 -1.1812501 c 0 -0.58590007 0.19845003 -1.08675 0.59534997 -1.4931002 c 0.39690006 -0.4063499 0.88830006 -0.61424994 1.46475 -0.61424994 c 0.5669999 0 1.0111499 0.27405 1.323 0.81270003 v -0.047250032 c 0 -0.4347 -0.037800074 -0.8221499 -0.12284994 -1.1529 c -0.24570012 -0.9827999 -0.75600004 -1.4741999 -1.54035 -1.4741999 c -0.40635014 0 -0.6898501 0.08505 -0.8694 0.24569999 c 0.21734989 0.047250003 0.36854994 0.23625001 0.36854994 0.46304998 c 0 0.31185 -0.16065001 0.47250003 -0.47249997 0.47250003 c -0.32130003 0 -0.48195004 -0.16065001 -0.48195004 -0.4914 c 0 -0.74654996 0.67095006 -1.06785 1.46475 -1.06785 c 0.81270003 0 1.4647498 0.35909998 1.9561498 1.0773 c 0.44414997 0.6331499 0.6615 1.3797 0.6615 2.22075 c 0 1.701 -0.60479975 3.1657498 -2.14515 3.1657498 Z m -0.09449983 -3.88395 c -0.40635014 0 -0.7182001 0.17955017 -0.9355501 0.5292001 c -0.14174998 0.22679996 -0.20789993 0.64260006 -0.20789993 1.2379501 c 0 0.3968997 0.028349996 0.68984985 0.07559991 0.87885 c 0.15120006 0.5197501 0.59535 0.88829994 1.1718001 0.88829994 c 0.35909986 0 0.6520498 -0.17010021 0.8693998 -0.5197501 c 0.17955017 -0.29295015 0.27405 -0.7371001 0.27405 -1.3513498 c 0 -0.85995007 -0.4347 -1.6632001 -1.2473998 -1.6632001 Z "/>
        </symbol>
        <symbol id="gE6B346F8A8E75F8FD2875BA64A778F01" overflow="visible">
            <path d="M 0 0m 3.2508 6.2748 c -0.82215 0 -1.5025499 -0.3496499 -2.0222998 -1.0489497 c -0.48195004 -0.6331501 -0.7182 -1.3797002 -0.7182 -2.2302003 c 0 -1.1717999 0.23624998 -2.0128498 0.70874995 -2.5136998 c 0.42525005 -0.44414997 0.91665006 -0.67095 1.48365 -0.67095 c 0.6048 0 1.1150999 0.20789999 1.5308998 0.61425 c 0.4158001 0.40634996 0.62370014 0.91665 0.62370014 1.5119998 c 0 0.58590007 -0.19845009 1.08675 -0.5953498 1.4930999 c -0.39690018 0.40635014 -0.8883002 0.6142502 -1.46475 0.6142502 c -0.5764501 0 -1.01115 -0.26460004 -1.323 -0.8032501 c 0.018899918 0.82215 0.1606499 1.4364002 0.41579998 1.8521998 c 0.34965003 0.55754995 0.80324996 0.8316002 1.3796998 0.8316002 c 0.34965014 0 0.6048 -0.085050106 0.76545024 -0.25514984 c -0.26460004 -0.05670023 -0.39690018 -0.21735 -0.39690018 -0.48195028 c 0 -0.31185007 0.16065001 -0.47249985 0.47249985 -0.47249985 c 0.32130003 0 0.48195028 0.16064978 0.48195028 0.49139977 c 0 0.7182002 -0.5859003 1.0678501 -1.3419001 1.0678501 Z m -1.7482499 -4.1391 c 0 0.81270003 0.48194993 1.5686998 1.2473999 1.5686998 c 0.29294991 0 0.53865004 -0.09449983 0.7370999 -0.28349996 c 0.3591001 -0.34019995 0.40635014 -0.76545 0.40635014 -1.48365 c 0 -0.6048 -0.085050106 -1.0300499 -0.24570012 -1.2663 c -0.22679996 -0.3213 -0.5386498 -0.48194999 -0.94499993 -0.48194999 c -0.91664994 0 -1.2001499 0.85994995 -1.2001499 1.9467 Z "/>
        </symbol>
        <symbol id="gB54F0DE1AB4C04C60697441D011866AD" overflow="visible">
            <path d="M 0 0m 1.3040999 2.92005 c 0.06615007 0 0.13230002 0.047250032 0.20790005 0.1417501 c 0.3024 0.38744998 0.72765005 0.5764499 1.2663001 0.5764499 c 0.68984985 0 1.0394998 -0.5669999 1.0394998 -1.6915499 c 0 -0.5481 -0.09449983 -0.95445 -0.27405 -1.2190499 c -0.25514984 -0.35909998 -0.6048 -0.53865 -1.0583999 -0.53865 c -0.6615 0 -1.1906999 0.37799996 -1.3985999 0.8693999 c 0.3024 0 0.5102999 0.19845009 0.5102999 0.5008501 c 0 0.3024 -0.19844997 0.51030004 -0.50084996 0.51030004 c -0.31185 -0.047250032 -0.50085 -0.19845009 -0.50085 -0.53865004 c 0 -0.5008501 0.19845003 -0.91665 0.59534997 -1.2474 c 0.36855006 -0.31184998 0.8126999 -0.47249997 1.3135501 -0.47249997 c 0.61424994 0 1.1434498 0.20789999 1.5970497 0.6048 c 0.45359993 0.3969 0.67094994 0.89775 0.67094994 1.4930999 c 0 0.57645 -0.19844961 1.0584 -0.5764499 1.4647499 c -0.37800002 0.40635014 -0.85049987 0.6048 -1.4080498 0.6048 c -0.50084996 0 -0.91665006 -0.14174986 -1.2663001 -0.41579986 v 1.6348498 c 0.3024 -0.07559967 0.5953499 -0.11339998 0.8693999 -0.11339998 c 0.36855006 0 0.7182002 0.07560015 1.0489502 0.23624992 c 0.2645998 0.12285042 0.93555 0.51030016 0.93555 0.7843504 c 0 0.11339998 -0.05670023 0.17009974 -0.16065025 0.17009974 c -0.5197499 -0.19845009 -1.0111499 -0.3024001 -1.4647498 -0.3024001 c -0.4630499 0 -0.91664994 0.085050106 -1.3419 0.25515032 c -0.06614995 0.028349876 -0.10395002 0.047249794 -0.13230002 0.047249794 c -0.103949904 0 -0.1606499 -0.094500065 -0.1606499 -0.29295015 v -2.7499497 c 0 -0.18900013 0.009449959 -0.31185007 0.18899989 -0.31185007 Z "/>
        </symbol>
        <symbol id="g3EE8FE1F490D6BD67941A34AEC1FD6C0" overflow="visible">
            <path d="M 0 0m 3.375 8.991 c -0.6615 0 -1.2419999 -0.2159996 -1.7279999 -0.64799976 c -0.48600006 -0.43200016 -0.72900003 -0.9720001 -0.72900003 -1.6335001 c 0 -0.5535002 0.20250005 -1.053 0.6075 -1.4985003 c 0.094499946 -0.1079998 0.3915 -0.33749962 0.89100003 -0.6884999 c -1.2285 -0.6345 -1.8495001 -1.458 -1.8495001 -2.457 c 0 -0.7155 0.297 -1.296 0.87750006 -1.7415 c 0.53999996 -0.4185 1.1744999 -0.62100005 1.9169999 -0.62100005 c 0.7560003 0 1.4175003 0.24300002 1.971 0.72900003 c 0.5535002 0.48600003 0.83700037 1.1205 0.83700037 1.863 c 0 0.62100005 -0.21600008 1.1745 -0.6615 1.674 c -0.16200018 0.17550015 -0.5805001 0.48599982 -1.2420001 0.90450025 c 1.0394998 0.5534997 1.5524998 1.2554998 1.5524998 2.079 c 0 1.2284994 -1.1745 2.0384998 -2.4435 2.0384998 Z m 1.7414999 -2.0384998 c 0 -0.70200014 -0.41849995 -1.3095002 -1.2554998 -1.809 l -1.6064999 1.053 c -0.41850007 0.26999998 -0.63450015 0.6209998 -0.63450015 1.0394998 c 0 0.8100004 0.8775002 1.3094997 1.7415 1.3094997 c 0.9315002 0 1.7549999 -0.6614995 1.7549999 -1.5929995 Z m -1.7414999 -6.7635 c -1.1069999 0 -2.0384998 0.7965 -2.0384998 1.8765 c 0 0.9045 0.49950004 1.6335001 1.4985 2.187 l 1.5929999 -1.0125 c 0.64800024 -0.41849995 0.9720001 -0.89100003 0.9720001 -1.431 c 0 -0.972 -1.0124998 -1.62 -2.025 -1.62 Z "/>
        </symbol>
    </defs>
</svg>
