<svg class="typst-doc" viewBox="0 0 170.802 94.9725" width="170.802pt" height="94.9725pt" xmlns="http://www.w3.org/2000/svg" xmlns:xlink="http://www.w3.org/1999/xlink" xmlns:h5="http://www.w3.org/1999/xhtml">
    <path class="typst-shape" fill="#00000000" fill-rule="nonzero" d="M 0 0v 94.9725 h 170.802 v -94.9725 Z "/>
    <g>
        <g class="typst-group" transform="matrix(1 0 0 1 0 16.2)">
            <g>
                <g class="typst-group" transform="matrix(1 0 0 1 0 27)">
                    <g>
                        <g class="typst-group">
                            <g>
                                <g class="typst-text" transform="matrix(1 0 0 -1 0 6.0075)">
                                    <use xlink:href="#g262B46B81EFA312DE86709DCCC360C56" x="0" y="0" fill="#000000" fill-rule="nonzero"/>
                                </g>
                                <g class="typst-group" transform="matrix(1 0 0 1 3.375 26.2575)">
                                    <g/>
                                </g>
                            </g>
                        </g>
                    </g>
                </g>
                <g class="typst-text" transform="matrix(1 0 0 -1 47.25 32.967)">
                    <use xlink:href="#gA645D039CB1242F1B95B37FDD9279A78" x="0" y="0" fill="#000000" fill-rule="nonzero"/>
                    <use xlink:href="#g1CA08F2E1E82207D3396719F281227DC" x="6.804" y="0" fill="#000000" fill-rule="nonzero"/>
                </g>
                <g class="typst-group" transform="matrix(1 0 0 1 99.576 0)">
                    <g>
                        <g class="typst-group">
                            <g>
                                <g class="typst-text" transform="matrix(1 0 0 -1 32.23800000000001 6.0075)">
                                    <use xlink:href="#g262B46B81EFA312DE86709DCCC360C56" x="0" y="0" fill="#000000" fill-rule="nonzero"/>
                                </g>
                                <g class="typst-group" transform="matrix(1 0 0 1 0 26.2575)">
                                    <g>
                                        <path class="typst-shape" fill="none" stroke="#000000" stroke-width="0.75" stroke-linecap="butt" stroke-linejoin="miter" stroke-miterlimit="4" transform="matrix(1 0 0 1 13.5 -4.05)" d="M 0 0l 22.113 -12.15 "/>
                                        <g class="typst-group">
                                            <g>
                                                <g class="typst-group">
                                                    <g>
                                                        <g class="typst-text" transform="matrix(1 0 0 -1 10.125 6.0075)">
                                                            <use xlink:href="#g262B46B81EFA312DE86709DCCC360C56" x="0" y="0" fill="#000000" fill-rule="nonzero"/>
                                                        </g>
                                                        <g class="typst-group" transform="matrix(1 0 0 1 0 26.2575)">
                                                            <g>
                                                                <path class="typst-shape" fill="none" stroke="#000000" stroke-width="0.75" stroke-linecap="butt" stroke-linejoin="miter" stroke-miterlimit="4" transform="matrix(1 0 0 1 3.375 -4.05)" d="M 0 0l 10.125 -12.15 "/>
                                                                <g class="typst-group">
                                                                    <g>
                                                                        <g class="typst-group">
                                                                            <g>
                                                                                <g class="typst-text" transform="matrix(1 0 0 -1 0 6.0075)">
                                                                                    <use xlink:href="#g262B46B81EFA312DE86709DCCC360C56" x="0" y="0" fill="#000000" fill-rule="nonzero"/>
                                                                                </g>
                                                                                <g class="typst-group" transform="matrix(1 0 0 1 3.375 26.2575)">
                                                                                    <g/>
                                                                                </g>
                                                                            </g>
                                                                        </g>
                                                                    </g>
                                                                </g>
                                                                <g class="typst-group">
                                                                    <g>
                                                                        <path class="typst-shape" fill="none" stroke="#000000" stroke-width="0.75" stroke-linecap="butt" stroke-linejoin="miter" stroke-miterlimit="4" transform="matrix(1 0 0 1 23.625 -4.05)" d="M 0 0l -10.125 -12.15 "/>
                                                                        <g class="typst-group" transform="matrix(1 0 0 1 20.25 0)">
                                                                            <g>
                                                                                <g class="typst-group">
                                                                                    <g>
                                                                                        <g class="typst-text" transform="matrix(1 0 0 -1 0 6.0075)">
                                                                                            <use xlink:href="#g262B46B81EFA312DE86709DCCC360C56" x="0" y="0" fill="#000000" fill-rule="nonzero"/>
                                                                                        </g>
                                                                                        <g class="typst-group" transform="matrix(1 0 0 1 3.375 26.2575)">
                                                                                            <g/>
                                                                                        </g>
                                                                                    </g>
                                                                                </g>
                                                                            </g>
                                                                        </g>
                                                                    </g>
                                                                </g>
                                                            </g>
                                                        </g>
                                                    </g>
                                                </g>
                                            </g>
                                        </g>
                                        <g class="typst-group">
                                            <g>
                                                <path class="typst-shape" fill="none" stroke="#000000" stroke-width="0.75" stroke-linecap="butt" stroke-linejoin="miter" stroke-miterlimit="4" transform="matrix(1 0 0 1 55.86300000000001 -4.05)" d="M 0 0l -20.25 -12.15 "/>
                                                <g class="typst-group" transform="matrix(1 0 0 1 40.5 0)">
                                                    <g>
                                                        <g class="typst-group">
                                                            <g>
                                                                <g class="typst-text" transform="matrix(1 0 0 -1 11.988000000000001 6.0075)">
                                                                    <use xlink:href="#g262B46B81EFA312DE86709DCCC360C56" x="0" y="0" fill="#000000" fill-rule="nonzero"/>
                                                                </g>
                                                                <g class="typst-group" transform="matrix(1 0 0 1 0 26.2575)">
                                                                    <g>
                                                                        <path class="typst-shape" fill="none" stroke="#000000" stroke-width="0.75" stroke-linecap="butt" stroke-linejoin="miter" stroke-miterlimit="4" transform="matrix(1 0 0 1 3.375 -4.05)" d="M 0 0l 11.988 -12.15 "/>
                                                                        <g class="typst-group">
                                                                            <g>
                                                                                <g class="typst-group">
                                                                                    <g>
                                                                                        <g class="typst-text" transform="matrix(1 0 0 -1 0 6.0075)">
                                                                                            <use xlink:href="#g262B46B81EFA312DE86709DCCC360C56" x="0" y="0" fill="#000000" fill-rule="nonzero"/>
                                                                                        </g>
                                                                                        <g class="typst-group" transform="matrix(1 0 0 1 3.375 26.2575)">
                                                                                            <g/>
                                                                                        </g>
                                                                                    </g>
                                                                                </g>
                                                                            </g>
                                                                        </g>
                                                                        <g class="typst-group">
                                                                            <g>
                                                                                <path class="typst-shape" fill="none" stroke="#000000" stroke-width="0.75" stroke-linecap="butt" stroke-linejoin="miter" stroke-miterlimit="4" transform="matrix(1 0 0 1 25.488 -4.05)" d="M 0 0l -10.125 -12.15 "/>
                                                                                <g class="typst-group" transform="matrix(1 0 0 1 20.25 0)">
                                                                                    <g>
                                                                                        <g class="typst-group">
                                                                                            <g>
                                                                                                <g class="typst-text" transform="matrix(1 0 0 -1 0 4.0905000000000005)">
                                                                                                    <use xlink:href="#g12EDC5C38714E8AB833C614F31C0176F" x="0" y="0" fill="#000000" fill-rule="nonzero"/>
                                                                                                </g>
                                                                                                <g class="typst-group" transform="matrix(1 0 0 1 5.238 24.3405)">
                                                                                                    <g/>
                                                                                                </g>
                                                                                            </g>
                                                                                        </g>
                                                                                    </g>
                                                                                </g>
                                                                            </g>
                                                                        </g>
                                                                    </g>
                                                                </g>
                                                            </g>
                                                        </g>
                                                    </g>
                                                </g>
                                            </g>
                                        </g>
                                    </g>
                                </g>
                            </g>
                        </g>
                    </g>
                </g>
            </g>
        </g>
    </g>
    <defs id="glyph">
        <symbol id="g262B46B81EFA312DE86709DCCC360C56" overflow="visible">
            <path d="M 0 0m 6.0075 3.375 c 0 0.22950006 0 0.3915 -0.013500214 0.48600006 c -0.040499687 0.4454999 -0.28349972 0.9045 -0.75600004 1.3769999 c -0.513 0.513 -1.1339998 0.76950026 -1.8629999 0.76950026 c -1.4714999 0 -2.6325 -1.1610003 -2.6325 -2.6325002 c 0 -1.4714999 1.161 -2.6325 2.6325 -2.6325 c 1.4714999 0 2.6325002 1.161 2.6325002 2.6325 Z "/>
        </symbol>
        <symbol id="gA645D039CB1242F1B95B37FDD9279A78" overflow="visible">
            <path d="M 0 0m 0.5535 2.7675002 c 0 -1.3770001 0.91800004 -2.9025002 2.835 -2.9025002 c 0.8640001 0 1.5255 0.31050003 1.9845002 0.756 c 0.6075001 0.59400004 0.87750006 1.4445 0.87750006 2.2680001 c 0 1.404 -0.76950026 3.0375001 -2.835 3.0375001 c -0.89100003 0 -1.6200001 -0.36450005 -2.1195002 -0.9450002 c -0.486 -0.5805001 -0.7425 -1.3635001 -0.7425 -2.214 Z m 2.6595001 2.6864998 c 1.161 0 1.8764999 -1.053 1.8764999 -2.997 c 0 -1.701 -0.87750006 -2.1195 -1.5119998 -2.1195 c -1.404 0 -1.863 1.7010001 -1.863 2.7405 c 0 1.1745 0.28349996 2.376 1.4985 2.376 Z "/>
        </symbol>
        <symbol id="g1CA08F2E1E82207D3396719F281227DC" overflow="visible">
            <path d="M 0 0m 2.3760002 4.833 c -0.027000189 0.53999996 -0.040500164 0.8909998 -0.10800004 1.026 c -0.02699995 0.067500114 -0.05400014 0.1079998 -0.16200018 0.1079998 c -0.3779999 -0.14849997 -0.72899985 -0.26999998 -1.6604999 -0.3915 c -0.02700001 -0.08099985 0 -0.29699993 0.02700001 -0.37799978 c 0.72900003 -0.067500114 0.8775 -0.13500023 0.8775 -0.9180002 v -2.6325 c 0 -1.1205001 -0.16199994 -1.1745 -0.999 -1.2285001 c -0.081 -0.081 -0.081 -0.36450002 0 -0.44550002 c 0.47250003 0.0135 0.999 0.027 1.539 0.027 c 0.53999996 0 1.161 -0.0135 1.6335001 -0.027 c 0.08099985 0.081 0.08099985 0.36450002 0 0.44550002 c -0.9450002 0.067499995 -1.1070001 0.10799998 -1.1070001 1.2285001 v 1.8765001 c 0 0.35099983 0.16199994 0.66149974 0.32399988 0.90449977 c 0.1485002 0.21600008 0.4590001 0.6615 0.62100005 0.6615 c 0.121500015 0 0.24300003 -0.02699995 0.35100007 -0.17549992 c 0.094500065 -0.13499975 0.2565 -0.31050014 0.48600006 -0.31050014 c 0.32399988 0 0.6345 0.3375001 0.6345 0.6750002 c 0 0.25650024 -0.24300003 0.64800024 -0.80999994 0.64800024 c -0.63450027 0 -1.1880002 -0.59400034 -1.4985001 -1.1205001 c -0.08100009 -0.14849997 -0.14849997 -0.040500164 -0.14849997 0.02699995 Z "/>
        </symbol>
        <symbol id="g12EDC5C38714E8AB833C614F31C0176F" overflow="visible">
            <path d="M 0 0m 9.72 3.375 c 0 0.4050002 -0.35099983 0.7154999 -0.75599957 0.7154999 c -0.4185009 0 -0.76950073 -0.31049967 -0.76950073 -0.7154999 c 0 -0.40499997 0.35099983 -0.7154999 0.76950073 -0.7154999 c 0.40499973 0 0.75599957 0.3104999 0.75599957 0.7154999 Z m -3.7260003 0 c 0 0.4050002 -0.35099983 0.7154999 -0.75600004 0.7154999 c -0.41849995 0 -0.75599957 -0.31049967 -0.75599957 -0.7154999 c 0 -0.40499997 0.33749962 -0.7154999 0.75599957 -0.7154999 c 0.4050002 0 0.75600004 0.3104999 0.75600004 0.7154999 Z m -3.7124999 0 c 0 0.4050002 -0.35100007 0.7154999 -0.7695 0.7154999 c -0.4050001 0 -0.75600004 -0.31049967 -0.75600004 -0.7154999 c 0 -0.40499997 0.35099995 -0.7154999 0.75600004 -0.7154999 c 0.40499997 0 0.7695 0.3104999 0.7695 0.7154999 Z "/>
        </symbol>
    </defs>
</svg>
